<svg width="100%" height="30" viewBox="0 0 300 30" stroke-width="4" stroke="black"><defs><linearGradient id="react-trend-vertical-gradient-9278485464797320" x1="0%" y1="0%" x2="0%" y2="100%"><stop offset="0" stop-color="#6FB0F9"></stop></linearGradient></defs><path id="react-trend-9278485464797320" d="M 8,13.6
L 13.916666666666668,13.6
S 19.833333333333336,13.6 25.181368780566032,11.069098717929315
L 26.318631219433975,10.530901282070683
S 31.666666666666668,8 37.583333333333336,8
L 37.583333333333336,8
S 43.5,8 47.550445443155006,12.312868669049553
L 49.756321117898324,14.66166023257906
S 55.333333333333336,20.6 61.25,15
L 62.17398346475149,14.125469171390137
S 67.16666666666666,9.4 73.08333333333333,12.899999999999999
L 73.59636804121641,13.203485320156187
S 79,16.4 84.91666666666666,18.5
L 84.91666666666666,18.5
S 90.83333333333333,20.6 96.50823907051303,17.914410806067075
L 96.75,17.799999999999997
S 102.66666666666667,15 108.58333333333334,17.8
L 109.11466579717826,18.051447475847745
S 114.5,20.6 120.41666666666666,19.9
L 120.41666666666666,19.9
S 126.33333333333333,19.2 132.25,18.5
L 132.29097875741604,18.495151808981763
S 138.16666666666666,17.8 144.08333333333331,17.8
L 144.08333333333331,17.8
S 150,17.8 155.75767872608358,16.43761968171544
L 155.91666666666669,16.4
S 161.83333333333334,15 167.32904515890738,17.60078756815898
L 167.75,17.8
S 173.66666666666666,20.6 178.4206879243587,16.10041931666332
L 179.58333333333331,15
S 185.5,9.4 191.07701221543502,15.338339767420948
L 192.07420165948486,16.40013585150782
S 197.33333333333334,22 203.25,17.1
L 203.87220801233477,16.584706603869243
S 209.16666666666666,12.2 215.08333333333331,15.7
L 215.7669960643795,16.104420207097732
S 221,19.2 226.91666666666669,17.799999999999997
L 226.91666666666669,17.799999999999997
S 232.83333333333334,16.4 238.75,17.799999999999997
L 238.90898794058307,17.837619681715434
S 244.66666666666666,19.2 250.58333333333331,19.2
L 250.58333333333331,19.2
S 256.5,19.2 262.07587112953865,17.220958415994733
L 262.41666666666663,17.1
S 268.3333333333333,15 274.008239070513,12.31441080606708
L 274.6709548410927,12.000787568158964
S 280.1666666666667,9.4 286.08333333333337,10.8
L 292,12.2" fill="none" stroke="url(#react-trend-vertical-gradient-9278485464797320)"></path></svg>