<svg width="100%" height="30" viewBox="0 0 300 30" stroke-width="4" stroke="black"><defs><linearGradient id="react-trend-vertical-gradient-4538539892415516" x1="0%" y1="0%" x2="0%" y2="100%"><stop offset="0" stop-color="#FF5574"></stop></linearGradient></defs><path id="react-trend-4538539892415516" d="M 8,12.666666666666666
L 13.916666666666668,12.666666666666666
S 19.833333333333336,12.666666666666666 25.69953161211729,13.437810102375355
L 25.75,13.444444444444443
S 31.666666666666668,14.222222222222221 36.94855285819647,16.99955205063226
L 38.21811380847019,17.667114616034404
S 43.5,20.444444444444443 49.41666666666667,19.666666666666664
L 49.41666666666667,19.666666666666664
S 55.333333333333336,18.88888888888889 61.25,18.11111111111111
L 61.25,18.11111111111111
S 67.16666666666666,17.333333333333332 72.71813479822664,15.144021957506862
L 73.08333333333333,14.999999999999996
S 79,12.666666666666666 84.91666666666666,15
L 85.28186520177333,15.144021957506855
S 90.83333333333333,17.333333333333332 96.75,18.11111111111111
L 96.75,18.11111111111111
S 102.66666666666667,18.88888888888889 108.43810176420823,20.40626149669324
L 108.58333333333334,20.444444444444443
S 114.5,22 120.1911644833457,19.755597105159442
L 120.82921849422101,19.50397017129312
S 126.33333333333333,17.333333333333332 132.25,17.333333333333332
L 132.25,17.333333333333332
S 138.16666666666666,17.333333333333332 143.4034990642134,14.579693762792324
L 144.08333333333331,14.222222222222221
S 150,11.11111111111111 155.5861429219456,14.782754346192725
L 156.84651003812155,15.611164657294294
S 161.83333333333334,18.88888888888889 167.75,18.11111111111111
L 167.75,18.11111111111111
S 173.66666666666666,17.333333333333332 178.3521976826247,13.637703236239672
L 180.50623537399977,11.938743930366364
S 185.5,8 191.41666666666669,10.333333333333332
L 191.41666666666669,10.333333333333337
S 197.33333333333334,12.666666666666666 203.25,10.333333333333332
L 203.25,10.333333333333332
S 209.16666666666666,8 215.08333333333331,10.333333333333329
L 215.08333333333331,10.333333333333332
S 221,12.666666666666666 226.31487715755748,16.160013155202087
L 226.91666666666669,16.555555555555554
S 232.83333333333334,20.444444444444443 238.04344530311053,15.650163007466373
L 238.75,15
S 244.66666666666666,9.555555555555555 250.58333333333331,14.999999999999993
L 250.95486378106193,15.341877782886419
S 256.5,20.444444444444443 262.41666666666663,15.777777777777777
L 263.64780231737524,14.806741208204794
S 268.3333333333333,11.11111111111111 274.25,10.333333333333332
L 274.25,10.333333333333332
S 280.1666666666667,9.555555555555555 285.9381017642082,11.072928163359913
L 292,12.666666666666666" fill="none" stroke="url(#react-trend-vertical-gradient-4538539892415516)"></path></svg>