<svg width="100%" height="30" viewBox="0 0 300 30" stroke-width="4" stroke="black"><defs><linearGradient id="react-trend-vertical-gradient-8412502179651069" x1="0%" y1="0%" x2="0%" y2="100%"><stop offset="0" stop-color="#EBB834"></stop></linearGradient></defs><path id="react-trend-8412502179651069" d="M 8,12.2
L 13.916666666666668,10.8
S 19.833333333333336,9.4 24.791227990748304,12.919406911742458
L 26.329012330450094,14.011017203587109
S 31.666666666666668,17.8 37.583333333333336,15
L 38.1519645527673,14.730901282070684
S 43.5,12.2 49.41666666666667,12.2
L 49.41666666666667,12.2
S 55.333333333333336,12.2 60.90920446287197,14.179041584005262
L 61.25,14.299999999999999
S 67.16666666666666,16.4 73.08333333333331,14.300000000000002
L 73.08333333333333,14.299999999999999
S 79,12.2 84.40363195878359,15.396514679843818
L 85.60032939771283,16.10442020709773
S 90.83333333333333,19.2 96.75,20.6
L 96.86883221355338,20.628118044897136
S 102.66666666666667,22 108.58333333333334,21.3
L 108.58333333333334,21.3
S 114.5,20.6 119.35831872557749,17.15127797508302
L 121.21378090251459,15.834161162158656
S 126.33333333333333,12.2 132.25,14.299999999999999
L 132.25,14.299999999999999
S 138.16666666666666,16.4 144.08333333333331,14.3
L 144.08333333333331,14.299999999999999
S 150,12.2 155.4036319587836,15.396514679843817
L 156.70543071171903,16.16659281538309
S 161.83333333333334,19.2 167.75,18.5
L 167.75,18.5
S 173.66666666666666,17.8 179.46450111977995,16.42811804489714
L 179.58333333333331,16.4
S 185.5,15 191.22983878039523,17.03368925726704
L 191.71857445585277,17.207156004049146
S 197.33333333333334,19.2 203.25,18.5
L 203.25,18.5
S 209.16666666666666,17.8 215.08333333333331,17.1
L 215.08333333333331,17.1
S 221,16.4 226.1279026216143,13.366592815383083
L 227.42970137454975,12.59651467984381
S 232.83333333333334,9.4 238.75,11.5
L 238.75,11.5
S 244.66666666666666,13.6 250.34157240384636,10.914410806067075
L 250.58333333333331,10.8
S 256.5,8 260.98111007773286,12.771435519388824
L 263.3661262126528,15.310973826430303
S 268.3333333333333,20.6 274.25,16.4
L 274.25,16.399999999999988
S 280.1666666666667,12.2 286.08333333333337,16.4
L 292,20.6" fill="none" stroke="url(#react-trend-vertical-gradient-8412502179651069)"></path></svg>